<svg xmlns="http://www.w3.org/2000/svg" width="20" height="20" viewBox="0 0 20 20">
  <path id="box-dollar_4_" data-name="box-dollar (4)" d="M18.333,8.333H1.667a.836.836,0,0,0-.833.833v6.667A4.168,4.168,0,0,0,5,20H15a4.168,4.168,0,0,0,4.167-4.167V9.167A.836.836,0,0,0,18.333,8.333ZM11.15,17.5h-.317a.833.833,0,0,1-1.667,0H8.942a2.505,2.505,0,0,1-2.167-1.25.838.838,0,0,1,1.45-.842.836.836,0,0,0,.725.417h2.2a.52.52,0,0,0,.083-1.033l-2.742-.458A2.186,2.186,0,0,1,8.85,9.992h.317a.833.833,0,1,1,1.667,0h.225a2.505,2.505,0,0,1,2.167,1.25.838.838,0,0,1-1.45.842.836.836,0,0,0-.725-.417H8.85A.52.52,0,0,0,8.767,12.7l2.742.458A2.186,2.186,0,0,1,11.15,17.5ZM20,4.358a2.473,2.473,0,0,1-2.5,2.317H2.5A2.5,2.5,0,0,1,0,4.175,4.17,4.17,0,0,1,4.167,0H16.008a4.172,4.172,0,0,1,3.983,4.35Z" fill="#3a416f"/>
</svg>
