<svg id="briefcase_1_" data-name="briefcase (1)" xmlns="http://www.w3.org/2000/svg" xmlns:xlink="http://www.w3.org/1999/xlink" width="16" height="16" viewBox="0 0 16 16">
  <defs>
    <linearGradient id="linear-gradient" x1="0.137" y1="0.202" x2="1" y2="2.085" gradientUnits="objectBoundingBox">
      <stop offset="0" stop-color="#21b1fd"/>
      <stop offset="1" stop-color="#11597f"/>
    </linearGradient>
  </defs>
  <path id="Path_525" data-name="Path 525" d="M12.667,2.68h-.733A3.343,3.343,0,0,0,8.667,0H7.333A3.343,3.343,0,0,0,4.067,2.68H3.333A3.346,3.346,0,0,0,0,6.03V8.04H16V6.03a3.346,3.346,0,0,0-3.333-3.35Zm-7.211,0A2,2,0,0,1,7.333,1.34H8.667a2,2,0,0,1,1.877,1.34Z" fill="url(#linear-gradient)"/>
  <path id="Path_526" data-name="Path 526" d="M8.667,14.67a.667.667,0,1,1-1.333,0V14H0v3.35A3.346,3.346,0,0,0,3.333,20.7h9.333A3.346,3.346,0,0,0,16,17.35V14H8.667Z" transform="translate(0 -4.7)" fill="url(#linear-gradient)"/>
</svg>
