<svg id="briefcase_2_" data-name="briefcase (2)" xmlns="http://www.w3.org/2000/svg" width="20" height="20" viewBox="0 0 20 20">
  <path id="Path_549" data-name="Path 549" d="M15.833,3.333h-.917A4.174,4.174,0,0,0,10.833,0H9.167A4.174,4.174,0,0,0,5.083,3.333H4.167A4.172,4.172,0,0,0,0,7.5V10H20V7.5a4.172,4.172,0,0,0-4.167-4.167Zm-9.013,0A2.5,2.5,0,0,1,9.167,1.667h1.667A2.5,2.5,0,0,1,13.18,3.333Z" fill="#3a416f"/>
  <path id="Path_550" data-name="Path 550" d="M10.833,14.833a.833.833,0,0,1-1.667,0V14H0v4.167a4.172,4.172,0,0,0,4.167,4.167H15.833A4.172,4.172,0,0,0,20,18.167V14H10.833Z" transform="translate(0 -2.333)" fill="#3a416f"/>
</svg>
