<svg xmlns="http://www.w3.org/2000/svg" width="16.667" height="20" viewBox="0 0 16.667 20">
  <path id="document_2_" data-name="document (2)" d="M12,5.833V.383a5.814,5.814,0,0,1,2.054,1.325l2.9,2.905a5.8,5.8,0,0,1,1.326,2.053h-5.45A.833.833,0,0,1,12,5.833Zm6.667,2.9v7.1A4.172,4.172,0,0,1,14.5,20H6.167A4.172,4.172,0,0,1,2,15.833V4.167A4.172,4.172,0,0,1,6.167,0H9.929c.136,0,.27.011.4.02V5.833a2.5,2.5,0,0,0,2.5,2.5h5.813c.009.134.02.268.02.4ZM12,15.833A.833.833,0,0,0,11.167,15H7a.833.833,0,1,0,0,1.667h4.167A.833.833,0,0,0,12,15.833ZM14.5,12.5a.833.833,0,0,0-.833-.833H7a.833.833,0,1,0,0,1.667h6.667A.833.833,0,0,0,14.5,12.5Z" transform="translate(-2)" fill="#3a416f"/>
</svg>
