<svg xmlns="http://www.w3.org/2000/svg" width="20.682" height="20.669" viewBox="0 0 20.682 20.669">
  <g id="home_1_" data-name="home (1)" transform="translate(0 -0.16)">
    <path id="Path_465" data-name="Path 465" d="M194.585,319.841A2.585,2.585,0,0,0,192,322.426v5.17h5.17v-5.17A2.585,2.585,0,0,0,194.585,319.841Z" transform="translate(-184.244 -306.768)" fill="#67748e"/>
    <g id="Group_294" data-name="Group 294" transform="translate(0 0.16)">
      <path id="Path_466" data-name="Path 466" d="M14.649,15.658v5.17H18.1a2.585,2.585,0,0,0,2.585-2.585v-7.86a1.723,1.723,0,0,0-.485-1.2L12.873,1.267A3.447,3.447,0,0,0,8,1.075q-.1.092-.192.192L.5,9.181A1.724,1.724,0,0,0,0,10.4v7.847a2.585,2.585,0,0,0,2.585,2.585H6.032v-5.17a4.309,4.309,0,1,1,8.617,0Z" transform="translate(0 -0.16)" fill="#67748e"/>
      <path id="Path_467" data-name="Path 467" d="M194.585,319.841A2.585,2.585,0,0,0,192,322.426v5.17h5.17v-5.17A2.585,2.585,0,0,0,194.585,319.841Z" transform="translate(-184.244 -306.928)" fill="#67748e"/>
    </g>
  </g>
</svg>
