<svg xmlns="http://www.w3.org/2000/svg" xmlns:xlink="http://www.w3.org/1999/xlink" width="63" height="63" viewBox="0 0 63 63">
  <defs>
    <linearGradient id="linear-gradient" x1="-0.036" y1="-0.039" x2="1.049" y2="1.046" gradientUnits="objectBoundingBox">
      <stop offset="0" stop-color="#3a416f"/>
      <stop offset="1" stop-color="#141727"/>
    </linearGradient>
  </defs>
  <g id="Group_870" data-name="Group 870" transform="translate(-1531.435 -547.435)">
    <rect id="Rectangle_698" data-name="Rectangle 698" width="63" height="63" rx="12" transform="translate(1531.435 547.435)" fill="url(#linear-gradient)"/>
    <g id="calendar_1_" data-name="calendar (1)" transform="translate(1547.18 563.181)">
      <path id="Path_547" data-name="Path 547" d="M0,21.864a6.63,6.63,0,0,0,6.653,6.591h18.63a6.63,6.63,0,0,0,6.653-6.591V10H0Zm22.622-5.932a1.977,1.977,0,1,1-2,1.977A1.987,1.987,0,0,1,22.622,15.932Zm-6.653,0a1.977,1.977,0,1,1-2,1.977A1.987,1.987,0,0,1,15.968,15.932Zm-6.653,0a1.977,1.977,0,1,1-2,1.977,1.987,1.987,0,0,1,2-1.977Z" transform="translate(0 3.482)" fill="#fff"/>
      <path id="Path_548" data-name="Path 548" d="M25.283,2.636H23.953V1.318a1.331,1.331,0,0,0-2.661,0V2.636H10.646V1.318a1.331,1.331,0,0,0-2.661,0V2.636H6.653A6.63,6.63,0,0,0,0,9.227v1.318H31.937V9.227A6.63,6.63,0,0,0,25.283,2.636Z" fill="#fff"/>
    </g>
  </g>
</svg>
