<svg xmlns="http://www.w3.org/2000/svg" width="59.215" height="37" viewBox="0 0 59.215 37">
  <path id="amazon_pay_icon_195964" d="M14,90.219c.223-.407.5-.475.94-.242,1.008.543,2,1.1,3.023,1.618A57.732,57.732,0,0,0,30.306,96.08a59.741,59.741,0,0,0,6.123,1.143,58.452,58.452,0,0,0,9.2.5c1.686-.039,3.372-.174,5.048-.368A58.485,58.485,0,0,0,66.5,93.213a1.382,1.382,0,0,1,.882-.116.783.783,0,0,1,.4,1.347,6.782,6.782,0,0,1-.93.717A37.1,37.1,0,0,1,57.2,99.8a45.856,45.856,0,0,1-7.276,1.705,41.754,41.754,0,0,1-5.154.465,2.064,2.064,0,0,0-.242.029H42.484a2.064,2.064,0,0,0-.242-.029c-.349-.019-.7-.029-1.037-.039a41.3,41.3,0,0,1-4.883-.513,43.442,43.442,0,0,1-7.789-2.025,42.951,42.951,0,0,1-14.106-8.429A3.358,3.358,0,0,1,14,90.413ZM29.308,65.01l-.417.058a7.84,7.84,0,0,0-3.682,1.463c-.233.165-.446.339-.688.523a.416.416,0,0,1-.039-.136c-.039-.262-.078-.533-.126-.794a.652.652,0,0,0-.736-.639H22.506c-.668,0-.794.126-.794.794V86.557c0,.1,0,.194.01.291a.472.472,0,0,0,.475.484c.678.01,1.366.01,2.044,0a.479.479,0,0,0,.484-.484c.01-.1.01-.194.01-.291V79.542c.107.087.165.136.213.184a6.8,6.8,0,0,0,5.91,1.492A5.884,5.884,0,0,0,35.1,77.837a9.909,9.909,0,0,0,1-4.273,11.1,11.1,0,0,0-.785-4.825,5.706,5.706,0,0,0-4.253-3.575c-.31-.068-.63-.1-.949-.145C29.841,65.01,29.579,65.01,29.308,65.01Zm-4.592,4.059a.337.337,0,0,1,.165-.32A6.681,6.681,0,0,1,29.3,67.47a3.508,3.508,0,0,1,3.246,2.509,9.215,9.215,0,0,1,.475,3.2,9.6,9.6,0,0,1-.388,2.965A3.745,3.745,0,0,1,28.5,78.9a6.718,6.718,0,0,1-3.623-1.347.346.346,0,0,1-.165-.32c.01-1.366,0-2.722,0-4.089S24.725,70.435,24.715,69.069ZM44.644,65.01c-.1.01-.194.029-.281.039a14.34,14.34,0,0,0-2.8.4c-.591.155-1.163.368-1.734.562a.7.7,0,0,0-.513.746c.01.32-.01.639,0,.959.01.465.2.591.659.475.756-.194,1.511-.407,2.277-.552a10.72,10.72,0,0,1,3.6-.136,2.346,2.346,0,0,1,1.628.814A2.681,2.681,0,0,1,48,69.9c.029.8.019,1.608.029,2.412a.76.76,0,0,1-.019.136c-.048-.01-.087,0-.126-.01a17.492,17.492,0,0,0-3.1-.475,8.278,8.278,0,0,0-3.226.378,4.725,4.725,0,0,0-2.848,2.412,5.071,5.071,0,0,0-.378,2.974A3.98,3.98,0,0,0,40.4,80.8a5.608,5.608,0,0,0,3.672.523,7.97,7.97,0,0,0,3.9-1.783.713.713,0,0,1,.155-.107c.058.368.107.717.174,1.066a.551.551,0,0,0,.523.5c.523.01,1.056.01,1.579,0a.469.469,0,0,0,.465-.455,2.539,2.539,0,0,0,.01-.271V70.009a7.75,7.75,0,0,0-.087-1.25,3.846,3.846,0,0,0-1.841-2.945,5.591,5.591,0,0,0-2.112-.688c-.349-.048-.7-.078-1.046-.126C45.419,65.01,45.032,65.01,44.644,65.01Zm3.391,12.372a.323.323,0,0,1-.145.291,7.377,7.377,0,0,1-3.623,1.444,3.325,3.325,0,0,1-1.628-.174,1.945,1.945,0,0,1-1.2-1.289,3.188,3.188,0,0,1-.01-1.88,2.233,2.233,0,0,1,1.589-1.511,5.942,5.942,0,0,1,2.4-.213c.814.068,1.608.223,2.422.329.155.019.2.1.2.252-.01.465,0,.92,0,1.385S48.026,76.926,48.035,77.382Zm25.18,12.537c-.1-.484-.465-.669-.882-.8a8.565,8.565,0,0,0-2.035-.378,14.273,14.273,0,0,0-3.8.184,10,10,0,0,0-3.875,1.511,1.332,1.332,0,0,0-.358.339.5.5,0,0,0-.048.388c.039.145.2.184.349.174a1.571,1.571,0,0,0,.213-.01c.756-.078,1.5-.165,2.257-.242a19.051,19.051,0,0,1,3.323-.087,6.942,6.942,0,0,1,1.4.262.977.977,0,0,1,.736,1.008,7.128,7.128,0,0,1-.339,2.257,40.945,40.945,0,0,1-1.531,4.369,1.7,1.7,0,0,0-.1.291c-.048.281.116.465.4.4a1.023,1.023,0,0,0,.465-.242,14.137,14.137,0,0,0,1.23-1.3,13.077,13.077,0,0,0,2.393-5.387c.077-.349.136-.707.2-1.056Zm-12.8-11.936Q58.542,72.794,56.668,67.6c-.194-.552-.407-1.095-.61-1.637a.642.642,0,0,0-.62-.465c-.736-.01-1.473-.019-2.219-.01-.242,0-.358.194-.31.436a4.179,4.179,0,0,0,.184.591q2.848,7.048,5.726,14.1a1.314,1.314,0,0,1,.019,1.143c-.32.707-.572,1.453-.9,2.161A2.229,2.229,0,0,1,56.464,85.2a4.082,4.082,0,0,1-1.492.107c-.242-.019-.484-.078-.727-.1-.329-.019-.494.126-.5.465q-.015.484,0,.959c.01.533.194.775.717.862a10.482,10.482,0,0,0,1.637.194,4.061,4.061,0,0,0,3.827-2.073,12.752,12.752,0,0,0,.891-1.783q3.444-8.69,6.84-17.4a2.578,2.578,0,0,0,.155-.533c.039-.271-.087-.426-.358-.426-.639-.01-1.289,0-1.928,0a.731.731,0,0,0-.746.5c-.048.136-.107.262-.155.4L61.25,76.064c-.242.7-.494,1.4-.746,2.151-.039-.107-.058-.165-.087-.233Z" transform="translate(-14 -65)" fill="#004fa2"/>
</svg>
