<svg xmlns="http://www.w3.org/2000/svg" width="15.833" height="15.833" viewBox="0 0 15.833 15.833">
  <g id="cancel" transform="translate(-1.583 -1.583)">
    <path id="Path_539" data-name="Path 539" d="M9.917,2a7.917,7.917,0,1,0,7.917,7.917A7.909,7.909,0,0,0,9.917,2Zm3.4,11.321a.788.788,0,0,1-1.116,0L9.917,11.033,7.629,13.321A.789.789,0,0,1,6.512,12.2L8.8,9.917,6.512,7.629A.789.789,0,0,1,7.629,6.512L9.917,8.8,12.2,6.512a.789.789,0,1,1,1.116,1.116L11.033,9.917,13.321,12.2a.8.8,0,0,1,0,1.116Z" transform="translate(-0.417 -0.417)" fill="#a50000"/>
  </g>
</svg>
