<svg xmlns="http://www.w3.org/2000/svg" width="19" height="23.224" viewBox="0 0 19 23.224">
  <g id="delete" transform="translate(-6.365 -2)">
    <path id="Path_535" data-name="Path 535" d="M21.3,18.653l-.529,10.963a.488.488,0,0,1-.48.472h-.024a.476.476,0,0,1-.333-.163.506.506,0,0,1-.124-.358l.527-10.913H17.971V29.591a.482.482,0,1,1-.963,0V18.653H14.642l.527,10.913a.506.506,0,0,1-.124.358.476.476,0,0,1-.333.163h-.024a.488.488,0,0,1-.48-.472l-.529-10.963H9.72c-.042,0-.083,0-.125-.006l1.232,13.6a2.112,2.112,0,0,0,2.084,1.961h9.155a2.112,2.112,0,0,0,2.084-1.961l1.232-13.6c-.04,0-.08.006-.12.006H21.3Z" transform="translate(-1.627 -8.988)" fill="#c80000"/>
    <path id="Path_536" data-name="Path 536" d="M23.676,5.4H20.038V4.3A2.268,2.268,0,0,0,17.8,2H13.927a2.271,2.271,0,0,0-2.24,2.3V5.4H8.054A1.709,1.709,0,0,0,6.365,7.133v.412A1.713,1.713,0,0,0,8.054,9.278H23.676a1.716,1.716,0,0,0,1.689-1.733V7.133A1.712,1.712,0,0,0,23.676,5.4Zm-4.606,0H12.655V4.3a1.291,1.291,0,0,1,1.272-1.306H17.8A1.291,1.291,0,0,1,19.07,4.3Z" fill="#ff6868"/>
  </g>
</svg>
