<svg xmlns="http://www.w3.org/2000/svg" xmlns:xlink="http://www.w3.org/1999/xlink" width="38" height="38" viewBox="0 0 38 38">
  <defs>
    <linearGradient id="linear-gradient" x1="0.118" y1="0.082" x2="0.91" y2="1" gradientUnits="objectBoundingBox">
      <stop offset="0" stop-color="#01fe81"/>
      <stop offset="1" stop-color="#017f41"/>
    </linearGradient>
  </defs>
  <g id="Group_797" data-name="Group 797" transform="translate(-1421.798 -528.438)">
    <circle id="Ellipse_166" data-name="Ellipse 166" cx="19" cy="19" r="19" transform="translate(1421.798 528.438)" fill="#fff"/>
    <path id="dollar_1_" data-name="dollar (1)" d="M443.572,18.547a5.955,5.955,0,0,1-1.557,4.124,6.722,6.722,0,0,1-4.046,2.136v2.739a.482.482,0,0,1-.5.5h-2.113a.508.508,0,0,1-.5-.5V24.808a9.866,9.866,0,0,1-2-.485,9.611,9.611,0,0,1-2.747-1.448,8.933,8.933,0,0,1-.728-.587q-.2-.188-.274-.282a.475.475,0,0,1-.031-.642l1.612-2.113a.487.487,0,0,1,.36-.188.388.388,0,0,1,.376.141l.031.031a8.173,8.173,0,0,0,3.8,1.956,5.466,5.466,0,0,0,1.158.125,3.8,3.8,0,0,0,2.23-.673,2.193,2.193,0,0,0,.963-1.91,1.587,1.587,0,0,0-.235-.83,2.936,2.936,0,0,0-.524-.657,4.293,4.293,0,0,0-.916-.587q-.626-.321-1.033-.5t-1.252-.509q-.61-.25-.963-.391t-.963-.415q-.61-.274-.978-.485t-.884-.556a5.514,5.514,0,0,1-.837-.665,9.737,9.737,0,0,1-.681-.767,3.832,3.832,0,0,1-.556-.908,6.27,6.27,0,0,1-.329-1.041,5.441,5.441,0,0,1-.133-1.221,5.352,5.352,0,0,1,1.534-3.788,7.162,7.162,0,0,1,3.991-2.1V.5A.481.481,0,0,1,435,.149.481.481,0,0,1,435.355,0h2.113a.482.482,0,0,1,.5.5V3.256a8.7,8.7,0,0,1,1.73.36,10.032,10.032,0,0,1,1.362.524,7.535,7.535,0,0,1,.994.587q.47.329.61.454t.235.219a.453.453,0,0,1,.078.595L441.71,8.28a.426.426,0,0,1-.36.25.5.5,0,0,1-.423-.11q-.047-.047-.227-.188t-.61-.415a8.074,8.074,0,0,0-.916-.5,6.989,6.989,0,0,0-1.166-.407,5.222,5.222,0,0,0-1.338-.18,4.068,4.068,0,0,0-2.426.673,2.1,2.1,0,0,0-.806,2.489,1.762,1.762,0,0,0,.462.65,6.892,6.892,0,0,0,.618.517,5.517,5.517,0,0,0,.876.485q.587.274.947.423t1.1.43q.83.313,1.268.493t1.19.548a9.458,9.458,0,0,1,1.182.665,9.974,9.974,0,0,1,.97.783,4.055,4.055,0,0,1,.83.994,5.662,5.662,0,0,1,.493,1.2A5.168,5.168,0,0,1,443.572,18.547Z" transform="translate(1004.527 533.912)" fill="url(#linear-gradient)"/>
  </g>
</svg>
