<svg xmlns="http://www.w3.org/2000/svg" width="17.975" height="18.5" viewBox="0 0 17.975 18.5">
  <g id="logout" transform="translate(-4 -3)">
    <path id="Path_1" data-name="Path 1" d="M21.9,10.6c-.1-.1-.1-.2-.2-.3l-2-2a.99.99,0,1,0-1.4,1.4l.3.3H16a.945.945,0,0,0-1,1,.945.945,0,0,0,1,1h2.6l-.3.3a.967.967,0,0,0,0,1.4.967.967,0,0,0,1.4,0l2-2c.1-.1.2-.2.2-.3a1.1,1.1,0,0,0,0-.8Z" fill="#3a416f"/>
    <path id="Path_2" data-name="Path 2" d="M17,14a.945.945,0,0,0-1,1v1a.945.945,0,0,1-1,1H14V8.4a2.96,2.96,0,0,0-1.9-2.8L10.5,5H15a.945.945,0,0,1,1,1V7a1,1,0,0,0,2,0V6a2.946,2.946,0,0,0-3-3H5a.367.367,0,0,0-.3.1.349.349,0,0,0-.2.1l-.1.1a.215.215,0,0,0-.2.2v.1a.215.215,0,0,0-.2.2V18a1.013,1.013,0,0,0,.6.9l6.6,2.5a1.7,1.7,0,0,0,.7.1,1.5,1.5,0,0,0,1.1-.4,2.2,2.2,0,0,0,.9-1.6V19h1a2.946,2.946,0,0,0,3-3V15a.865.865,0,0,0-.9-1ZM6,17.3V5.4l5.3,2a1.2,1.2,0,0,1,.7,1V19.5Z" fill="#3a416f"/>
  </g>
</svg>
