<svg xmlns="http://www.w3.org/2000/svg" width="16.718" height="16.718" viewBox="0 0 16.718 16.718">
  <path id="phone-call" d="M9.082.7a.7.7,0,0,1,.7-.7,6.985,6.985,0,0,1,6.977,6.977.7.7,0,1,1-1.4,0A5.588,5.588,0,0,0,9.78,1.395a.7.7,0,0,1-.7-.7Zm.7,3.489a2.791,2.791,0,0,1,2.791,2.791.7.7,0,1,0,1.4,0A4.191,4.191,0,0,0,9.78,2.79a.7.7,0,0,0,0,1.4Zm6.345,7.493a2.163,2.163,0,0,1,0,3.055l-.635.732C9.775,20.937-4.131,7.034,1.256,1.3l.8-.7A2.15,2.15,0,0,1,5.077.632c.022.022,1.315,1.7,1.315,1.7a2.163,2.163,0,0,1,0,2.988L5.579,6.336a8.918,8.918,0,0,0,4.836,4.846l1.022-.813a2.163,2.163,0,0,1,2.987,0S16.1,11.657,16.125,11.679Zm-.96,1.015s-1.67-1.285-1.691-1.306a.768.768,0,0,0-1.081,0c-.019.02-1.426,1.141-1.426,1.141a.7.7,0,0,1-.683.106A10.472,10.472,0,0,1,4.128,6.488a.7.7,0,0,1,.1-.7S5.351,4.383,5.37,4.365a.768.768,0,0,0,0-1.081c-.022-.021-1.306-1.692-1.306-1.692a.768.768,0,0,0-1.054.027l-.8.7c-3.937,4.733,8.114,16.116,12.262,12.2l.636-.733a.782.782,0,0,0,.059-1.086Z" transform="translate(-0.039 0.002)" fill="#67748e"/>
</svg>
