<svg id="Group_834" data-name="Group 834" xmlns="http://www.w3.org/2000/svg" xmlns:xlink="http://www.w3.org/1999/xlink" width="93" height="93" viewBox="0 0 93 93">
  <defs>
    <linearGradient id="linear-gradient" x1="0.5" x2="0.5" y2="1" gradientUnits="objectBoundingBox">
      <stop offset="0" stop-color="#020089"/>
      <stop offset="1" stop-color="#00ff80"/>
    </linearGradient>
  </defs>
  <rect id="Rectangle_692" data-name="Rectangle 692" width="93" height="93" rx="26" transform="translate(0 0)" fill="#fff"/>
  <path id="form" d="M27.614.568a9.406,9.406,0,0,1,3.558,2.2l3.135,3.139a9.38,9.38,0,0,1,2.206,3.556h-8.9ZM23.827,22.72H16.253a1.893,1.893,0,1,0,0,3.787h7.573a1.893,1.893,0,1,0,0-3.787Zm3.787-9.467a3.787,3.787,0,0,1-3.787-3.787V0H12.467A9.478,9.478,0,0,0,3,9.467V35.974a9.478,9.478,0,0,0,9.467,9.467H27.614a9.478,9.478,0,0,0,9.467-9.467V13.253Zm0,24.614H12.467a1.893,1.893,0,1,1,0-3.787H27.614a1.893,1.893,0,0,1,0,3.787Zm-3.787-7.573H16.253a5.68,5.68,0,0,1,0-11.36h7.573a5.68,5.68,0,0,1,0,11.36Z" transform="translate(26.551 23.978)" fill="url(#linear-gradient)"/>
</svg>
