<svg id="download-file" xmlns="http://www.w3.org/2000/svg" width="16" height="16" viewBox="0 0 16 16">
  <path id="Path_529" data-name="Path 529" d="M4.538,9.309a.5.5,0,0,0,.108.545l3,3a.5.5,0,0,0,.708,0l3-3A.5.5,0,0,0,11,9H9V.5A.5.5,0,0,0,8.5,0h-1A.5.5,0,0,0,7,.5V9H5a.5.5,0,0,0-.462.309Z" transform="translate(0)" fill="#fff"/>
  <path id="Path_530" data-name="Path 530" d="M14,5H11V7h2.1l.779,7H2.117L2.9,7H5V5H2a1,1,0,0,0-.994.89l-1,9A1,1,0,0,0,1,16H15a1,1,0,0,0,.994-1.11l-1-9A1,1,0,0,0,14,5Z" transform="translate(0)" fill="#fff"/>
</svg>
