<svg xmlns="http://www.w3.org/2000/svg" xmlns:xlink="http://www.w3.org/1999/xlink" width="12.002" height="16" viewBox="0 0 12.002 16">
  <defs>
    <linearGradient id="linear-gradient" x2="1.202" y2="1" gradientUnits="objectBoundingBox">
      <stop offset="0" stop-color="#03ff2e"/>
      <stop offset="1" stop-color="#006511"/>
    </linearGradient>
  </defs>
  <path id="hourglass-end_Green" d="M12.034,8a8.371,8.371,0,0,0,2.937-4.966,2.629,2.629,0,0,0-.612-2.1A2.678,2.678,0,0,0,12.334,0H5.67A2.676,2.676,0,0,0,3.641.933,2.627,2.627,0,0,0,3.03,3.039,8.348,8.348,0,0,0,5.964,8,8.348,8.348,0,0,0,3.03,12.963a2.627,2.627,0,0,0,.611,2.1A2.676,2.676,0,0,0,5.67,16h6.663a2.678,2.678,0,0,0,2.029-.933,2.629,2.629,0,0,0,.612-2.1A8.371,8.371,0,0,0,12.034,8Zm.851,5.706a.667.667,0,0,1-.552.294H5.667a.667.667,0,0,1-.619-.916A9.9,9.9,0,0,1,8.115,9.313l.467-.373a.667.667,0,0,1,.83,0l.46.367a10.009,10.009,0,0,1,3.073,3.775.667.667,0,0,1-.059.623Zm-1.653-1.039H6.766a9.975,9.975,0,0,1,2.181-2.308L9,10.315l.047.037a10.2,10.2,0,0,1,2.185,2.315Z" transform="translate(-3.001)" fill="url(#linear-gradient)"/>
</svg>
