<svg xmlns="http://www.w3.org/2000/svg" xmlns:xlink="http://www.w3.org/1999/xlink" width="38" height="38" viewBox="0 0 38 38">
  <defs>
    <linearGradient id="linear-gradient" y1="0.296" x2="1.229" y2="1.723" gradientUnits="objectBoundingBox">
      <stop offset="0" stop-color="#007cff"/>
      <stop offset="1" stop-color="#003e80"/>
    </linearGradient>
  </defs>
  <g id="Group_749" data-name="Group 749" transform="translate(-1421.798 -528.438)">
    <circle id="Ellipse_166" data-name="Ellipse 166" cx="19" cy="19" r="19" transform="translate(1421.798 528.438)" fill="#fff"/>
    <g id="profile" transform="translate(1431.234 536.812)">
      <ellipse id="Ellipse_167" data-name="Ellipse 167" cx="5.977" cy="5.904" rx="5.977" ry="5.904" transform="translate(3.586 0)" opacity="0.4" fill="url(#linear-gradient)"/>
      <path id="Path_537" data-name="Path 537" d="M19.116,16.885h0a1.959,1.959,0,0,0,0-.252,2.275,2.275,0,0,0-.259-.893c-.581-1.135-2.21-1.65-3.569-1.941a20.061,20.061,0,0,0-2.947-.388L11.3,13.333H7.817l-1.038.078a20.062,20.062,0,0,0-2.947.388c-1.359.252-2.988.776-3.569,1.941A2.277,2.277,0,0,0,0,16.633a1.969,1.969,0,0,0,0,.252H0a2.132,2.132,0,0,0,0,.252,2.28,2.28,0,0,0,.27.883c.581,1.135,2.21,1.65,3.569,1.941a23.074,23.074,0,0,0,2.947.388l1.038.068h3.486l1.038-.068a23.075,23.075,0,0,0,2.947-.388c1.359-.262,2.988-.776,3.569-1.941a2.516,2.516,0,0,0,.259-.9A1.9,1.9,0,0,0,19.116,16.885Z" transform="translate(0 0.834)" fill="url(#linear-gradient)"/>
    </g>
  </g>
</svg>
