<svg xmlns="http://www.w3.org/2000/svg" width="22.602" height="22.588" viewBox="0 0 22.602 22.588">
  <g id="home_1_" data-name="home (1)" transform="translate(0 -0.16)">
    <path id="Path_465" data-name="Path 465" d="M194.825,319.841A2.825,2.825,0,0,0,192,322.666v5.65h5.65v-5.65A2.825,2.825,0,0,0,194.825,319.841Z" transform="translate(-183.524 -305.569)" fill="#fff"/>
    <g id="Group_294" data-name="Group 294" transform="translate(0 0.16)">
      <path id="Path_466" data-name="Path 466" d="M16.01,17.1v5.65h3.767A2.825,2.825,0,0,0,22.6,19.922v-8.59a1.883,1.883,0,0,0-.53-1.311l-8-8.652a3.767,3.767,0,0,0-5.323-.21q-.109.1-.21.21L.547,10.019A1.884,1.884,0,0,0,0,11.347v8.576a2.825,2.825,0,0,0,2.825,2.825H6.592V17.1a4.709,4.709,0,1,1,9.418,0Z" transform="translate(0 -0.16)" fill="#fff"/>
      <path id="Path_467" data-name="Path 467" d="M194.825,319.841A2.825,2.825,0,0,0,192,322.666v5.65h5.65v-5.65A2.825,2.825,0,0,0,194.825,319.841Z" transform="translate(-183.524 -305.729)" fill="#fff"/>
    </g>
  </g>
</svg>
