<svg xmlns="http://www.w3.org/2000/svg" width="14.221" height="16.698" viewBox="0 0 14.221 16.698">
  <path id="form" d="M13.271.209a4.041,4.041,0,0,1,1.485.81l1.308,1.154a3.413,3.413,0,0,1,.92,1.307H13.271Zm-1.58,8.14H8.53a.747.747,0,0,0-.79.7.747.747,0,0,0,.79.7h3.16a.747.747,0,0,0,.79-.7A.747.747,0,0,0,11.691,8.349Zm1.58-3.479a1.5,1.5,0,0,1-1.58-1.391V0H6.95A3.742,3.742,0,0,0,3,3.479v9.74A3.742,3.742,0,0,0,6.95,16.7h6.321a3.742,3.742,0,0,0,3.95-3.479V4.87Zm0,9.045H6.95a.7.7,0,1,1,0-1.391h6.321a.7.7,0,1,1,0,1.391Zm-1.58-2.783H8.53A2.242,2.242,0,0,1,6.16,9.045,2.242,2.242,0,0,1,8.53,6.957h3.16a2.242,2.242,0,0,1,2.37,2.087A2.242,2.242,0,0,1,11.691,11.132Z" transform="translate(-3)" fill="#fff"/>
</svg>
