<?xml version="1.0" standalone="no"?>
<!DOCTYPE svg PUBLIC "-//W3C//DTD SVG 20010904//EN"
 "http://www.w3.org/TR/2001/REC-SVG-20010904/DTD/svg10.dtd">
<svg version="1.0" xmlns="http://www.w3.org/2000/svg"
 width="100.000000pt" height="100.000000pt" viewBox="0 0 100.000000 100.000000"
 preserveAspectRatio="xMidYMid meet">

<g transform="translate(0.000000,100.000000) scale(0.100000,-0.100000)"
fill="#000000" stroke="none">
<path d="M0 500 l0 -360 500 0 500 0 0 360 0 360 -500 0 -500 0 0 -360z m958
293 c-2 -23 -44 -60 -227 -205 -124 -98 -227 -178 -231 -178 -3 0 -106 80
-230 178 -182 144 -226 183 -228 205 l-3 27 461 0 461 0 -3 -27z m-692 -254
c119 -94 222 -173 228 -175 7 -3 112 74 234 171 122 96 224 175 227 175 3 0 5
-119 5 -265 l0 -265 -460 0 -460 0 0 265 c0 146 2 265 5 265 3 0 103 -77 221
-171z"/>
</g>
</svg>
